<svg xmlns="http://www.w3.org/2000/svg" viewBox="0 0 135 178" fill="none">
  <path d="M132.886 28.2895C133.322 28.6284 133.951 28.5496 134.29 28.1136C134.628 27.6775 134.55 27.0492 134.114 26.7103L132.886 28.2895ZM33.7866 177.977C34.3261 178.095 34.8591 177.753 34.977 177.213L36.8977 168.421C37.0156 167.881 36.6737 167.348 36.1341 167.23C35.5946 167.113 35.0616 167.454 34.9438 167.994L33.2365 175.81L25.4208 174.102C24.8812 173.984 24.3482 174.326 24.2304 174.866C24.1125 175.405 24.4544 175.938 24.9939 176.056L33.7866 177.977ZM134.114 26.7103C109.855 7.8563 86.3192 -0.134544 65.8874 0.57083C45.4375 1.27682 28.1864 10.695 16.5698 26.4695C-6.64709 57.9962 -7.21273 114.601 33.1583 177.54L34.8417 176.46C-5.28728 113.899 -4.35292 58.2537 18.1802 27.6554C29.4386 12.3673 46.125 3.25428 65.9564 2.56964C85.8057 1.88437 108.895 9.64352 132.886 28.2895L134.114 26.7103Z" fill="white"/>
</svg>