<svg xmlns="http://www.w3.org/2000/svg" width="72" height="14" viewBox="0 0 72 14" fill="none">
  <g clip-path="url(#clip0_139_10)">
    <path d="M35.2472 0.320801C33.0824 0.320801 31.2994 1.23464 30.3369 2.68053C29.4961 1.09249 27.8593 0.320801 25.9098 0.320801C23.9847 0.320801 22.421 1.04375 21.5071 2.34343V0.442646H19.2936V13.1958H21.6046V6.62831C21.6046 3.86243 23.1196 2.39217 25.4306 2.39217C27.5263 2.39217 28.7285 3.61874 28.7285 6.12063V13.1958H31.0395V6.62831C31.0395 3.86243 32.5544 2.39217 34.8654 2.39217C36.9612 2.39217 38.1634 3.61874 38.1634 6.12063V13.1958H40.4744V5.85663C40.4744 2.1038 38.3583 0.320801 35.2513 0.320801H35.2472ZM56.2574 6.88825C56.2574 2.96484 53.6337 0.320801 49.9499 0.320801C46.2661 0.320801 43.5489 3.03795 43.5489 6.8192C43.5489 10.6208 46.2905 13.3379 50.4088 13.3379C52.5249 13.3379 54.2835 12.615 55.437 11.2665L54.1617 9.77598C53.2234 10.8117 51.9725 11.3153 50.4819 11.3153C47.9557 11.3153 46.1483 9.82472 45.8599 7.58683H56.2087C56.233 7.37157 56.2574 7.0832 56.2574 6.88825ZM49.9499 2.27032C52.1878 2.27032 53.8002 3.78526 54.0398 5.92974H45.8559C46.0955 3.76495 47.7323 2.27032 49.9458 2.27032H49.9499ZM66.2649 0.320801C64.2423 0.320801 62.6055 1.06812 61.6673 2.3678V0.442646H59.4538V13.1958H61.7648V6.62831C61.7648 3.86243 63.3528 2.39217 65.806 2.39217C67.9951 2.39217 69.2461 3.61874 69.2461 6.12063V13.1958H71.5571V5.85663C71.5571 2.1038 69.3679 0.320801 66.2609 0.320801H66.2649Z" fill="white"/>
    <path fill-rule="evenodd" clip-rule="evenodd" d="M11.1706 0.0649414C13.3394 1.37275 14.7894 3.76903 14.7894 6.51055C14.7894 10.6492 11.4793 14 7.3934 14C3.31159 14 0.00146484 10.6452 0.00146484 6.51055C0.00146484 3.85026 1.37019 1.5149 3.43344 0.186786C2.68206 1.0925 2.22717 2.25815 2.22717 3.53346C2.22717 6.40089 4.52192 8.72813 7.35279 8.72813C10.1837 8.72813 12.4784 6.40495 12.4784 3.53346C12.4784 2.20129 11.9829 0.986902 11.1706 0.0690029V0.0649414Z" fill="white"/>
    <path fill-rule="evenodd" clip-rule="evenodd" d="M7.37715 0C7.89297 0 8.3113 0.418335 8.3113 0.934146C8.3113 1.44996 7.89297 1.86829 7.37715 1.86829C6.86134 1.86829 6.44301 1.44996 6.44301 0.934146C6.44301 0.418335 6.86134 0 7.37715 0Z" fill="white"/>
    <path fill-rule="evenodd" clip-rule="evenodd" d="M7.36497 4.90222C7.75894 4.90222 8.0798 5.22308 8.0798 5.61705C8.0798 6.01101 7.75894 6.33187 7.36497 6.33187C6.971 6.33187 6.65015 6.01101 6.65015 5.61705C6.65015 5.22308 6.971 4.90222 7.36497 4.90222Z" fill="white"/>
  </g>
  <defs>
    <clipPath id="clip0_139_10">
      <rect width="71.5667" height="14" fill="white"/>
    </clipPath>
  </defs>
</svg>